<svg xmlns="http://www.w3.org/2000/svg" width="32" height="32" viewBox="0 0 32 32">
    <g fill="none" fill-rule="evenodd">
        <path fill="#FFF" d="M-1215-2912H385V535h-1600z"/>
        <g>
            <path d="M0 0h32v32H0z"/>
            <circle cx="16" cy="16" r="15" stroke="#000" stroke-width="2"/>
            <path fill="#000" d="M20.462 8.727h-8.924a2.814 2.814 0 0 0-2.81 2.811v8.924a2.814 2.814 0 0 0 2.81 2.81h8.924c1.55 0 2.81-1.26 2.81-2.81v-8.924a2.814 2.814 0 0 0-2.81-2.81zm.806 1.677l.322-.001v2.465l-2.458.008-.009-2.466 2.145-.006zm-7.344 4.103A2.557 2.557 0 0 1 16 13.439c.854 0 1.61.423 2.076 1.068.303.42.485.935.485 1.493A2.563 2.563 0 0 1 16 18.56 2.563 2.563 0 0 1 13.44 16c0-.558.182-1.072.484-1.493zm7.932 5.955c0 .768-.626 1.394-1.394 1.394h-8.924a1.395 1.395 0 0 1-1.394-1.394v-5.955h2.173A3.948 3.948 0 0 0 12.023 16 3.982 3.982 0 0 0 16 19.978 3.982 3.982 0 0 0 19.978 16c0-.528-.107-1.031-.294-1.493h2.172v5.955z"/>
        </g>
    </g>
</svg>
