<svg xmlns="http://www.w3.org/2000/svg" width="32" height="32" viewBox="0 0 32 32">
    <g fill="none" fill-rule="evenodd">
        <path fill="#FFF" d="M-1327-2912H273V535h-1600z"/>
        <g>
            <path d="M0 0h32v32H0z"/>
            <circle cx="16" cy="16" r="15" stroke="#000" stroke-width="2"/>
            <path fill="#000" d="M8.727 14.785c0 1.868.704 3.53 2.21 4.15.248.101.47.003.54-.273.05-.19.169-.67.22-.871.073-.273.045-.368-.154-.605-.434-.517-.713-1.184-.713-2.13 0-2.745 2.04-5.203 5.314-5.203 2.899 0 4.49 1.783 4.49 4.163 0 3.131-1.377 5.775-3.42 5.775-1.13 0-1.975-.94-1.704-2.092.324-1.376.952-2.862.952-3.855 0-.889-.474-1.63-1.455-1.63-1.154 0-2.082 1.201-2.082 2.81 0 1.027.345 1.72.345 1.72l-1.388 5.918c-.412 1.757-.062 3.91-.032 4.127.017.13.181.16.256.063.107-.14 1.48-1.848 1.949-3.554.131-.483.758-2.986.758-2.986.376.72 1.471 1.354 2.636 1.354 3.47 0 5.824-3.183 5.824-7.444C23.273 11 20.56 8 16.44 8c-5.127 0-7.713 3.7-7.713 6.785z"/>
        </g>
    </g>
</svg>
