<svg xmlns="http://www.w3.org/2000/svg" xmlns:xlink="http://www.w3.org/1999/xlink" width="24" height="24" viewBox="0 0 24 24">
    <defs>
        <path id="a" d="M13.943 4.322a4.001 4.001 0 0 0-7.885-.004c1.113.162 2.25.753 3.29 1.885l.188.21c.208.253.363.45.464.589.101-.14.256-.335.465-.588l.187-.21c1.041-1.13 2.179-1.72 3.29-1.882zm1.007-.031c2.723.224 5.05 2.935 5.05 6.375 0 5.523-5 10.833-10 13.332C4.995 21.496 0 16.19 0 10.666c0-3.44 2.328-6.152 5.05-6.379a5.001 5.001 0 0 1 9.9.004zM10 22.873c5.086-2.71 9-7.702 9-12.207 0-5.077-5.053-7.385-8.192-3.075l-.81 1.111-.807-1.113C6.059 3.276 1 5.587 1 10.666c0 4.506 3.91 9.494 9 12.207z"/>
    </defs>
    <g fill="none" fill-rule="evenodd" transform="translate(2)">
        <mask id="b" fill="#fff">
            <use xlink:href="#a"/>
        </mask>
        <use fill="#000" fill-rule="nonzero" xlink:href="#a"/>
        <g fill="#000" mask="url(#b)">
            <path d="M-2 0h24v24H-2z"/>
        </g>
    </g>
</svg>
