<svg xmlns="http://www.w3.org/2000/svg" width="24" height="24" viewBox="0 0 24 24">
    <g fill="none" fill-rule="nonzero">
        <path fill="#81D8D0" d="M3.886 6.277c2.548-2.174 5.197-1.485 7.95 2.067 2.064-3.17 4.371-4.048 6.92-2.634 1.887 2.188 2.429 4.715 1.624 7.581-.804 2.866-3.652 6.087-8.544 9.663-4.395-3.719-7.044-6.557-7.95-8.516-.905-1.958-.905-4.679 0-8.161z"/>
        <path fill="#000" d="M20 10.666c0-4.181-3.864-5.946-6.383-2.487l-1.62 2.224-1.616-2.226C7.87 4.716 4 6.484 4 10.667c0 3.946 3.439 8.46 8 11.064 4.558-2.603 8-7.119 8-11.065zm-5.03-6.092a3 3 0 0 0-5.94-.004 5.602 5.602 0 0 1 1.591.94l.356.315c.463.483.804.875 1.023 1.177.33-.452.672-.843 1.024-1.176l.357-.315a5.614 5.614 0 0 1 1.589-.937zm1.98-.283c2.723.224 5.05 2.935 5.05 6.375 0 5.523-5 10.833-10 13.332C6.995 21.496 2 16.19 2 10.666c0-3.44 2.328-6.152 5.05-6.379a5.001 5.001 0 0 1 9.9.004z"/>
    </g>
</svg>
