<?xml version="1.0" standalone="no"?>
<!DOCTYPE svg PUBLIC "-//W3C//DTD SVG 1.1//EN" "http://www.w3.org/Graphics/SVG/1.1/DTD/svg11.dtd" >
<svg xmlns="http://www.w3.org/2000/svg">
<metadata>Generated by IcoMoon</metadata>
<defs>
<font id="icomoon" horiz-adv-x="1024">
<font-face units-per-em="1024" ascent="960" descent="-64" />
<missing-glyph horiz-adv-x="1024" />
<glyph unicode="&#x20;" horiz-adv-x="512" d="" />
<glyph unicode="&#xe900;" glyph-name="view" d="M637.799 444.674l92.654-92.674-60.327-60.34-200.793 200.837 200.793 200.837 60.327-60.34-103.499-103.522c181.22 21.867 311.713 93.048 311.713 163.861 0 85.068-188.317 170.667-426.667 170.667s-426.667-85.599-426.667-170.667c0-57.192 85.118-114.623 213.333-146.122v-80.256c-170.603 41.439-298.667 123.337-298.667 226.378 0 150.573 231.938 256 512 256s512-105.427 512-256c0-127.288-165.749-222.313-386.201-248.659zM259.072 82.688v31.744h15.019c26.624 0 46.080 16.384 46.080 37.888s-18.773 34.133-40.619 34.133c-19.797 0-34.816-8.875-44.373-24.235l-32.085 19.115c16.384 25.941 43.349 41.301 77.141 41.301 47.787 0 79.872-31.744 79.872-68.949 0-24.917-12.288-43.008-29.355-53.931 19.115-11.264 34.133-33.109 34.133-59.392 0-43.349-36.864-76.117-89.771-76.117-37.888 0-68.267 18.773-83.968 46.763l34.475 16.384c8.875-16.725 28.331-26.624 48.811-26.624 29.013 0 50.176 16.725 50.176 40.96 0 25.259-20.139 40.96-52.565 40.96h-12.971zM543.403 218.88l-57.685-86.699c4.096 1.365 10.581 2.389 18.773 2.389 43.691 0 81.92-36.523 81.92-84.651 0-47.445-38.571-86.016-87.723-86.016-49.835 0-88.747 36.523-88.747 85.333 0 21.845 7.851 43.349 20.48 63.488l67.584 106.155h45.397zM449.195 49.237c0-27.307 21.845-49.152 49.493-49.152 27.307 0 48.128 22.528 48.128 50.176 0 29.355-20.821 50.176-48.811 50.176-9.899 0-19.115-1.707-25.6-4.096-15.701-6.144-23.211-27.648-23.211-47.104zM633.173 93.269c0 71.339 29.013 129.365 95.573 129.365s95.573-57.685 95.573-129.365c0-71.68-29.013-129.024-95.573-129.024s-95.573 57.685-95.573 129.024zM673.109 93.269c0-48.811 12.288-91.477 55.637-91.477s55.637 42.667 55.637 91.477c0 48.811-12.288 91.819-55.637 91.819s-55.637-43.008-55.637-91.819z" />
<glyph unicode="&#xe901;" glyph-name="Add" d="M554.667 490.667h469.333v-85.333h-469.333v-469.333h-85.333v469.333h-469.333v85.333h469.333v469.333h85.333v-469.333z" />
<glyph unicode="&#xe902;" glyph-name="Appointment" d="M938.667 576v170.667h-170.667v-85.333h-85.333v85.333h-341.333v-85.333h-85.333v85.333h-170.667v-682.667h853.333v426.667h-853.333v85.333h853.333zM768 832h256v-853.333h-1024v853.333h256v85.333h85.333v-85.333h341.333v85.333h85.333v-85.333z" />
<glyph unicode="&#xe903;" d="M213.333 917.333h597.333v-853.333l-301.74 152.75-295.594-152.75z" />
<glyph unicode="&#xe904;" d="M170.667 960h682.667v-1024l-341.333 256-341.333-256v1024zM768 874.667h-512v-768l256 192 256-192v768z" />
<glyph unicode="&#xe905;" glyph-name="bookmark" d="M810.667 21.333v896h-597.333v-896l298.667 224 298.667-224zM170.667 960h682.667v-1024l-341.333 256-341.333-256v1024zM0 960h1024v-1024h-1024v1024z" />
<glyph unicode="&#xe906;" glyph-name="Clock" d="M585.143 886.857c121.905 0 225.523-42.666 310.857-128s128-188.952 128-310.857c0-121.905-42.666-225.523-128-310.857s-188.952-128-310.857-128c-120.382 0-224 42.666-310.857 128l70.857 70.857c65.524-67.048 145.523-100.571 240-100.571s174.857 33.143 241.143 99.429c66.286 66.286 99.429 146.666 99.429 241.143s-33.143 174.857-99.429 241.143c-66.286 66.286-146.666 99.429-241.143 99.429s-174.857-33.143-241.143-99.429c-66.286-66.286-99.429-146.666-99.429-241.143h146.286l-198.857-196.571-2.286 6.857-189.714 189.714h146.286c0 121.905 42.666 225.523 128 310.857s188.952 128 310.857 128zM537.143 642.286h73.143v-205.714l169.143-102.857-34.286-59.429-208 125.714v242.286z" />
<glyph unicode="&#xe907;" glyph-name="Close" d="M962.118 960l-450.096-450.14-450.184 450.14-61.838-61.882 450.184-450.096-450.184-450.184 61.838-61.794 450.184 450.14 450.096-450.14 61.882 61.794-450.184 450.184 450.184 450.096z" />
<glyph unicode="&#xe908;" glyph-name="Conceirge" d="M0 21.333h1024v-85.333h-1024v85.333zM341.333 960h341.333v-85.333h-341.333v85.333zM0 192v85.333c0 282.77 229.23 512 512 512s512-229.23 512-512v-85.333h-1024zM938.667 277.333c0 235.641-191.025 426.667-426.667 426.667s-426.667-191.025-426.667-426.667h853.333z" />
<glyph unicode="&#xe909;" glyph-name="Down" d="M0 676.651l512.040-511.998 511.956 511.998-59.307 59.349-452.649-452.732-452.732 452.732z" />
<glyph unicode="&#xe90a;" glyph-name="Drop-a-hint" d="M292.885 642.122c48.82 63.691 138.189 83.512 219.187 33.583 78.024 47.821 163.641 31.302 213.426-26.702l140.332 140.332h-720.157l147.212-147.212zM258.038 556.289l-172.705 172.705v-622.327h853.333v634.824l-174.48-174.48c2.493-12.899 3.813-26.537 3.813-40.837 0-120.85-105.456-244.375-234.713-318.787l-21.28-12.251-21.284 12.244c-129.030 74.229-234.724 197.985-234.724 318.793 0 10.397 0.698 20.446 2.038 30.116zM0 874.667h1024v-853.333h-1024v853.333zM682.667 526.173c0 85.259-74.951 121.638-143.227 64.297l-27.522-23.114-27.454 23.195c-68.042 57.487-143.131 20.974-143.131-64.378 0-77.162 75.201-170.479 170.663-231.87 95.646 61.509 170.67 154.648 170.67 231.87z" />
<glyph unicode="&#xe90b;" glyph-name="Dropdown" d="M512 106.711l-512 682.622h1024z" />
<glyph unicode="&#xe90c;" glyph-name="dropdown-down" d="M0 789.333l511.979-682.624 512.021 682.624z" />
<glyph unicode="&#xe90d;" glyph-name="dropdown-left" d="M853.291 960l-682.624-511.979 682.624-512.021z" />
<glyph unicode="&#xe90e;" glyph-name="dropdown-right" d="M170.667-64l682.624 511.979-682.624 512.021z" />
<glyph unicode="&#xe90f;" glyph-name="dropdown-up" d="M1023.979 106.688l-511.979 682.624-512.021-682.624z" />
<glyph unicode="&#xe910;" glyph-name="Elipses" d="M512 362.667c-47.128 0-85.333 38.205-85.333 85.333s38.205 85.333 85.333 85.333c47.128 0 85.333-38.205 85.333-85.333s-38.205-85.333-85.333-85.333zM85.333 362.667c-47.128 0-85.333 38.205-85.333 85.333s38.205 85.333 85.333 85.333c47.128 0 85.333-38.205 85.333-85.333s-38.205-85.333-85.333-85.333zM938.667 362.667c-47.128 0-85.333 38.205-85.333 85.333s38.205 85.333 85.333 85.333c47.128 0 85.333-38.205 85.333-85.333s-38.205-85.333-85.333-85.333z" />
<glyph unicode="&#xe911;" glyph-name="Error" d="M512-64c-282.325 0-512 229.675-512 512s229.675 512 512 512c282.325 0 512-229.675 512-512s-229.675-512-512-512zM512 874.667c-235.264 0-426.667-191.403-426.667-426.667s191.403-426.667 426.667-426.667c235.264 0 426.667 191.403 426.667 426.667s-191.403 426.667-426.667 426.667zM469.333 320v426.667h85.333v-426.667h-85.333zM469.333 149.333v85.333h85.333v-85.333h-85.333z" />
<glyph unicode="&#xe912;" d="M-40672 94144h51200v-110304h-51200z" />
<glyph unicode="&#xe913;" d="M992 448c0-265.097-214.903-480-480-480s-480 214.903-480 480c0 265.097 214.903 480 480 480s480-214.903 480-480z" />
<glyph unicode="&#xe914;" d="M542.592 145.44h-113.472v267.68h-56.736v92.224h56.736v55.36c0 75.264 32 120 123.008 120h75.744v-92.256h-47.36c-35.392 0-37.76-12.864-37.76-36.928l-0.128-46.176h85.76l-10.016-92.224h-75.744v-267.68z" />
<glyph unicode="&#xe915;" glyph-name="Go-to-Top" d="M0 10.669l512.040 511.998 511.956-511.998-59.307-59.349-452.649 452.732-452.732-452.732-59.307 59.349zM0 863.957v85.376h1023.996v-85.376h-1023.996z" />
<glyph unicode="&#xe916;" glyph-name="Hamburger" d="M0 789.333h1024v-85.333h-1024v85.333zM0 192h597.333v-85.333h-597.333v85.333z" />
<glyph unicode="&#xe917;" glyph-name="Info" d="M512-64c-282.325 0-512 229.675-512 512s229.675 512 512 512c282.325 0 512-229.675 512-512s-229.675-512-512-512zM512 874.667c-235.264 0-426.667-191.403-426.667-426.667s191.403-426.667 426.667-426.667c235.264 0 426.667 191.403 426.667 426.667s-191.403 426.667-426.667 426.667zM469.333 149.333v426.667h85.333v-426.667h-85.333zM469.333 661.333v85.333h85.333v-85.333h-85.333z" />
<glyph unicode="&#xe918;" d="M-38880 94144h51200v-110304h-51200z" />
<glyph unicode="&#xe919;" d="M992 448c0-265.097-214.903-480-480-480s-480 214.903-480 480c0 265.097 214.903 480 480 480s480-214.903 480-480z" />
<glyph unicode="&#xe91a;" d="M654.784 680.736h-285.568c-49.643-0.073-89.865-40.306-89.92-89.947v-285.573c0.073-49.632 40.288-89.847 89.913-89.92h285.575c49.6 0 89.92 40.32 89.92 89.92v285.568c-0.073 49.632-40.288 89.847-89.913 89.92h-0.007zM680.576 627.072l10.304 0.032v-78.88l-78.656-0.256-0.288 78.912 68.64 0.192zM445.568 495.776c15.011 20.776 39.157 34.146 66.427 34.176h0.005c27.328 0 51.52-13.536 66.432-34.176 9.696-13.44 15.52-29.92 15.52-47.776-0.055-45.232-36.717-81.884-81.948-81.92h-0.004c-45.221 0.055-81.865 36.699-81.92 81.915v0.005c0 17.856 5.824 34.304 15.488 47.776zM699.392 305.216c0-24.576-20.032-44.608-44.608-44.608h-285.568c-24.629 0.018-44.59 19.979-44.608 44.606v190.562h69.536c-5.942-14.127-9.399-30.547-9.408-47.773v-0.003c0.073-70.263 57.003-127.205 127.255-127.296h0.009c70.274 0.073 127.223 57.022 127.296 127.289v0.007c0 16.896-3.424 32.992-9.408 47.776h69.504v-190.56z" />
<glyph unicode="&#xe91b;" glyph-name="Kebab" d="M597.333 448c0-47.128-38.205-85.333-85.333-85.333s-85.333 38.205-85.333 85.333c0 47.128 38.205 85.333 85.333 85.333s85.333-38.205 85.333-85.333zM597.333 21.333c0-47.128-38.205-85.333-85.333-85.333s-85.333 38.205-85.333 85.333c0 47.128 38.205 85.333 85.333 85.333s85.333-38.205 85.333-85.333zM597.333 874.667c0-47.128-38.205-85.333-85.333-85.333s-85.333 38.205-85.333 85.333c0 47.128 38.205 85.333 85.333 85.333s85.333-38.205 85.333-85.333z" />
<glyph unicode="&#xe91c;" glyph-name="Left" d="M735.998 960l-511.998-512.040 511.998-511.956 59.349 59.307-452.732 452.649 452.732 452.732z" />
<glyph unicode="&#xe91d;" glyph-name="Location" d="M545.674-4.867l-33.686-43.294-33.672 43.306c-204.486 262.992-307.65 469.321-307.65 623.523 0 188.513 152.82 341.333 341.333 341.333s341.333-152.82 341.333-341.333c0-154.376-103.17-360.716-307.659-623.534zM768 618.667c0 141.385-114.615 256-256 256s-256-114.615-256-256c0-122.313 84.826-299.271 256.011-527.106 171.172 227.681 255.989 404.634 255.989 527.106z" />
<glyph unicode="&#xe91e;" d="M-42464 94144h51200v-110304h-51200z" />
<glyph unicode="&#xe91f;" d="M992 448c0-265.097-214.903-480-480-480s-480 214.903-480 480c0 265.097 214.903 480 480 480s480-214.903 480-480z" />
<glyph unicode="&#xe920;" d="M279.264 486.88c0-59.776 22.528-112.96 70.72-132.8 7.936-3.232 15.040-0.096 17.28 8.736 1.6 6.080 5.408 21.44 7.040 27.872 2.336 8.736 1.44 11.776-4.928 19.36-13.888 16.544-22.816 37.888-22.816 68.16 0 87.84 65.28 166.496 170.048 166.496 92.768 0 143.68-57.056 143.68-133.216 0-100.192-44.064-184.8-109.44-184.8-36.16 0-63.2 30.080-54.528 66.944 10.368 44.032 30.464 91.584 30.464 123.36 0 28.448-15.168 52.16-46.56 52.16-36.928 0-66.624-38.432-66.624-89.92 0-32.864 11.040-55.040 11.040-55.040l-44.416-189.376c-13.184-56.224-1.984-125.12-1.024-132.064 0.544-4.16 5.792-5.12 8.192-2.016 3.424 4.48 47.36 59.136 62.368 113.728 4.192 15.456 24.256 95.552 24.256 95.552 12.032-23.040 47.072-43.328 84.352-43.328 111.040 0 186.368 101.856 186.368 238.208 0 103.104-86.816 199.104-218.656 199.104-164.064 0-246.816-118.4-246.816-217.12z" />
<glyph unicode="&#xe921;" glyph-name="play-white" d="M170.667-64l682.624 511.979-682.624 512.021z" />
<glyph unicode="&#xe922;" glyph-name="Right" d="M283.349 960l511.998-512.040-511.998-511.956-59.349 59.307 452.732 452.649-452.732 452.732z" />
<glyph unicode="&#xe923;" glyph-name="saved-store_default" d="M170.667 437.333c0-275.2 6.4-501.333 14.933-501.333 6.4 0 83.2 53.333 170.667 117.333l155.733 117.333 155.733-117.333c87.467-64 164.267-117.333 170.667-117.333 8.533 0 14.933 226.133 14.933 501.333v501.333h-682.667v-501.333zM810.667 448v-450.133l-140.8 108.8c-78.933 57.6-149.333 106.667-157.867 106.667s-78.933-49.067-157.867-106.667l-140.8-108.8v898.133h597.333v-448z" />
<glyph unicode="&#xe925;" glyph-name="Search" d="M678.401 329.442l333.111-333.111-60.34-60.34-334.5 334.5c-64.563-49.246-145.202-78.491-232.672-78.491-212.077 0-384 171.923-384 384s171.923 384 384 384c212.077 0 384-171.923 384-384 0-93.858-33.674-179.852-89.599-246.558zM384 277.333c164.949 0 298.667 133.718 298.667 298.667s-133.718 298.667-298.667 298.667c-164.949 0-298.667-133.718-298.667-298.667s133.718-298.667 298.667-298.667z" />
<glyph unicode="&#xe926;" glyph-name="Share" d="M85.333 789.333v-682.667h853.333v682.667h-853.333zM768 789.333v85.333h256v-256h-85.333v-170.667h85.333v-426.667h-1024v853.333h597.333v-85.333h170.667zM878.327 789.333l-256-256 60.34-60.34 256 256v60.34h-60.34z" />
<glyph unicode="&#xe927;" glyph-name="Shipping" d="M597.333 789.333h-512v-682.667h853.333v682.667l-256-0.027-0.21-335.719-170.471 113.79-170.652-113.768v335.723h85.333v-176.277l85.348 56.899 85.208-56.877 0.11 176.254zM0 21.333v853.333h1024v-853.333h-1024z" />
<glyph unicode="&#xe928;" glyph-name="Shopping-Bag" d="M768 618.667v-85.333h-85.333v85.333h-341.333v-85.333h-85.333v85.333h-85.333v-597.333h682.667v597.333h-85.333zM256 704c0 141.377 114.623 256 256 256s256-114.623 256-256h170.667v-768h-853.333v768h170.667zM341.333 704h341.333c0 94.249-76.417 170.667-170.667 170.667s-170.667-76.417-170.667-170.667z" />
<glyph unicode="&#xe929;" glyph-name="star" d="M255.15 22.23l256.85 141.983 256.85-141.983-49.054 300.726 207.796 212.975-287.167 43.875-128.425 273.609-128.425-273.609-287.167-43.875 207.796-212.975-49.054-300.726zM512 110.92l-316.433-174.92 60.433 370.487-256 262.38 353.783 54.053 158.217 337.080 158.217-337.080 353.783-54.053-256-262.38 60.433-370.487-316.433 174.92z" />
<glyph unicode="&#xe92a;" glyph-name="Star_hover" d="M794.68-16.091l-54.026 331.208 230.23 235.968-318.038 48.592-140.847 300.073-140.847-300.073-318.038-48.592 230.23-235.968-54.026-331.208 282.68 156.262 282.68-156.262z" />
<glyph unicode="&#xe92b;" glyph-name="Subtract" d="M0 490.667h1024v-85.333h-1024v85.333z" />
<glyph unicode="&#xe92c;" d="M-44256 94144h51200v-110304h-51200z" />
<glyph unicode="&#xe92d;" d="M992 448c0-265.097-214.903-480-480-480s-480 214.903-480 480c0 265.097 214.903 480 480 480s480-214.903 480-480z" />
<glyph unicode="&#xe92e;" d="M710.4 567.968c20.97 13.536 36.588 33.815 43.9 57.72l0.196 0.744c-18.277-11.652-39.598-20.543-62.404-25.435l-1.276-0.229c-17.913 20.439-44.036 33.304-73.166 33.408h-0.018c-55.36 0-100.224-47.36-100.224-105.728 0-8.32 0.832-16.384 2.56-24.096-83.328 4.416-157.184 46.464-206.688 110.496-8.54-15.269-13.568-33.503-13.568-52.912 0-0.096 0-0.192 0-0.287v0.015c0-36.672 17.728-69.056 44.608-88.032-16.833 0.62-32.415 5.451-45.885 13.461l0.445-0.245v-1.28c0-51.296 34.56-94.016 80.48-103.712-8.448-2.496-17.28-3.712-26.464-3.712-6.432 0-12.736 0.64-18.848 1.856 12.768-41.984 49.792-72.608 93.664-73.408-33.533-28.168-77.174-45.28-124.811-45.28-8.331 0-16.54 0.523-24.595 1.539l0.959-0.099c43.034-29.677 96.286-47.425 153.68-47.488h0.016c184.48 0 285.28 161.152 285.28 300.896 0 4.608-0.064 9.152-0.256 13.664 19.769 15.228 36.389 33.375 49.511 53.968l0.505 0.848c-16.75-8.046-36.191-13.899-56.639-16.539l-0.961-0.101z" />
<glyph unicode="&#xe92f;" glyph-name="Up" d="M0 224.002l512.040 511.998 511.956-511.998-59.307-59.349-452.649 452.732-452.732-452.732z" />
<glyph unicode="&#xe930;" glyph-name="View-Large" d="M85.333 874.667v-853.333h853.333v853.333h-853.333zM0 960h1024v-1024h-1024v1024z" />
<glyph unicode="&#xe931;" glyph-name="View-Small" d="M85.333 874.667v-256h256v256h-256zM0 960h426.667v-426.667h-426.667v426.667zM85.333 277.333v-256h256v256h-256zM0 362.667h426.667v-426.667h-426.667v426.667zM682.667 874.667v-256h256v256h-256zM597.333 960h426.667v-426.667h-426.667v426.667zM682.667 277.333v-256h256v256h-256zM597.333 362.667h426.667v-426.667h-426.667v426.667z" />
<glyph unicode="&#xe932;" glyph-name="Wishlist-Option-1" d="M1024 620.454c0-243.080-220.565-501.437-490.713-656.958l-21.28-12.251-21.284 12.244c-269.642 155.121-490.724 413.984-490.724 656.965 0 291.047 277.653 437.083 512.077 267.434 234.781 168.935 511.923 23.402 511.923-267.434zM938.667 620.454c0 230.589-215.332 335.103-399.227 180.661l-27.522-23.114-27.454 23.195c-183.407 154.955-399.131 50.056-399.131-180.742 0-199.041 190.461-427.823 426.661-570.452 236.665 142.964 426.672 371.291 426.672 570.452z" />
<glyph unicode="&#xe933;" glyph-name="Wishlist-Option-2" d="M299.541 766.117c9.825 108.705 101.195 193.883 212.459 193.883 111.385 0 202.833-85.364 212.49-194.239 113.13-19.897 214.176-115.793 214.176-262.383 0-202.337-182.195-415.749-405.379-544.234l-21.28-12.251-21.284 12.244c-222.771 128.157-405.391 341.984-405.391 544.241 0 146.147 101.381 242.299 214.208 262.738zM385.564 766.736c46.045-7.891 90.225-29.457 126.436-66.444 36.642 36.382 80.766 57.733 126.549 65.709-9.32 61.519-62.429 108.666-126.549 108.666-63.865 0-116.805-46.772-126.436-107.931zM853.333 503.379c0 182.145-213.928 241.135-324.443 95.735l-16.973-23.114-17.113 23.195c-109.357 146.089-324.138 86.499-324.138-95.816 0-158.369 152.021-342.050 341.328-457.656 189.679 115.868 341.339 299.187 341.339 457.656z" />
<glyph unicode="&#xe934;" glyph-name="wish-list" d="M470.656 452.896c-14.592 31.456-22.656 67.36-22.656 107.104s8.064 79.648 22.656 117.088c14.56 37.472 35.648 72.512 61.728 102.56 26.048 30.016 57.088 55.136 91.52 72.672 34.464 17.632 72.352 27.68 112.096 27.68s77.632-8.064 112.096-22.624c34.464-14.592 65.472-35.68 91.52-61.728 26.016-26.048 47.168-57.088 61.728-91.552 14.624-34.432 22.656-72.352 22.656-112.096s-8.064-77.664-22.656-112.096c-14.56-34.464-35.648-65.504-61.728-91.552-26.016-26.048-393.152-357.76-427.616-372.352v0 0c-34.464 14.592-401.6 346.304-427.648 372.352s-47.136 57.088-61.728 91.552c-14.56 34.432-22.624 72.352-22.624 112.096s8.064 77.664 22.624 112.096c14.592 34.464 35.648 65.504 61.728 91.552 26.048 26.048 57.088 47.136 91.552 61.728 34.432 14.56 72.32 22.624 112.096 22.624s77.664-10.048 112.096-27.616c34.464-17.6 65.472-42.688 91.552-72.704 26.048-30.048 47.136-65.088 61.728-102.56 14.56-37.472 22.624-77.376 22.624-117.12s-8.064-75.648-22.624-107.104c-14.592-31.456-35.616-58.496-61.728-80.576z" />
<glyph unicode="&#xe935;" glyph-name="wish-list-selected" d="M470.656 452.896c-14.592 31.456-22.656 67.36-22.656 107.104s8.064 79.648 22.656 117.088c14.56 37.472 35.648 72.512 61.728 102.56 26.048 30.016 57.088 55.136 91.52 72.672 34.464 17.632 72.352 27.68 112.096 27.68s77.632-8.064 112.096-22.624c34.464-14.592 65.472-35.68 91.52-61.728 26.016-26.048 47.168-57.088 61.728-91.552 14.624-34.432 22.656-72.352 22.656-112.096s-8.064-77.664-22.656-112.096c-14.56-34.464-35.648-65.504-61.728-91.552-26.016-26.048-393.152-357.76-427.616-372.352v0 0c-34.464 14.592-401.6 346.304-427.648 372.352s-47.136 57.088-61.728 91.552c-14.56 34.432-22.624 72.352-22.624 112.096s8.064 77.664 22.624 112.096c14.592 34.464 35.648 65.504 61.728 91.552 26.048 26.048 57.088 47.136 91.552 61.728 34.432 14.56 72.32 22.624 112.096 22.624s77.664-10.048 112.096-27.616c34.464-17.6 65.472-42.688 91.552-72.704 26.048-30.048 47.136-65.088 61.728-102.56 14.56-37.472 22.624-77.376 22.624-117.12s-8.064-75.648-22.624-107.104c-14.592-31.456-35.616-58.496-61.728-80.576z" />
<glyph unicode="&#xe936;" d="M-44637.091 91320.242h49648.485v-106961.455h-49648.485z" />
<glyph unicode="&#xe937;" d="M977.455 452.003c0-257.063-208.391-465.455-465.455-465.455s-465.455 208.391-465.455 465.455c0 257.063 208.391 465.455 465.455 465.455s465.455-208.391 465.455-465.455z" />
<glyph unicode="&#xe938;" d="M737.683 383.085v160.861s0 77.545-77.793 77.545h-295.812s-77.762 0-77.762-77.545v-160.861s0-77.545 77.762-77.545h295.812s77.793 0 77.793 77.545zM599.599 463.298l-147.704-86.512v173.025l147.704-86.512z" />
<glyph unicode="&#xe939;" glyph-name="Zoom-In" d="M878.327 874.667h-110.327v85.333h256v-256h-85.333v110.327l-256-256-60.34 60.34 256 256zM145.673 21.333h110.327v-85.333h-256v256h85.333v-110.327l256 256 60.34-60.34-256-256z" />
<glyph unicode="&#xe93a;" glyph-name="Zoom-Out" d="M280.017 276.761h-111.066v85.905h257.716v-257.716h-85.905v111.066l-280.017-280.017-60.744 60.744 280.017 280.017zM743.983 619.239h109.544v-85.905h-256.194v256h85.905v-109.35l280.017 280.017 60.744-60.744-280.017-280.017z" />
</font>
</defs>
</svg>
